<svg xmlns:rdf="http://www.w3.org/1999/02/22-rdf-syntax-ns#" xmlns="http://www.w3.org/2000/svg" height="48" width="48" version="1.1" xmlns:cc="http://creativecommons.org/ns#" xmlns:dc="http://purl.org/dc/elements/1.1/" viewBox="0 0 48 48.000001">
<g transform="translate(0 -1004.4)">
<path fill="#7b6" d="m41.352 1015.3-3.1588-4.1213c-0.43333-0.5657-0.96016-0.8484-1.5794-0.8484-0.61949 0-1.146 0.2827-1.5797 0.8484l-15.237 19.912-6.8285-8.9421c-0.43358-0.5656-0.96016-0.8484-1.5794-0.8484-0.61949 0-1.146 0.2827-1.5797 0.8484l-3.1587 4.1208c-0.4335 0.6-0.6502 1.3-0.6502 2.1 0 0.8073 0.21666 1.4952 0.65028 2.0599l8.4076 10.97 3.1588 4.1213c0.43333 0.5657 0.95986 0.8484 1.5794 0.8484 0.6192 0 1.146-0.2831 1.5794-0.8484l3.1583-4.1208 16.816-21.94c0.434-0.6 0.651-1.3 0.651-2.1 0.000029-0.8079-0.21695-1.4952-0.65028-2.0606"/>
</g>
</svg>
