<svg xmlns:rdf="http://www.w3.org/1999/02/22-rdf-syntax-ns#" xmlns="http://www.w3.org/2000/svg" height="48" width="48" version="1.1" xmlns:cc="http://creativecommons.org/ns#" xmlns:dc="http://purl.org/dc/elements/1.1/" viewBox="0 0 48 48.000001">
<g transform="translate(0 -1004.4)">
<path fill="#da4453" d="m24 1010.4c9.9255 0 18 8.0745 18 18s-8.0745 18-18 18-18-8.0745-18-18 8.0745-18 18-18m0 6.0761c-2.1842 0-4.231 0.5914-5.9932 1.6209l16.29 16.29c1.0295-1.7622 1.621-3.8091 1.621-5.9932 0-6.5706-5.3453-11.916-11.916-11.916m0 23.832c2.1842 0 4.231-0.5915 5.9932-1.621l-16.29-16.291c-1.0295 1.7622-1.621 3.809-1.621 5.9932 0 6.5706 5.3453 11.916 11.916 11.916"/>
</g>
</svg>
