<svg xmlns:rdf="http://www.w3.org/1999/02/22-rdf-syntax-ns#" xmlns="http://www.w3.org/2000/svg" height="48" width="48" version="1.1" xmlns:cc="http://creativecommons.org/ns#" xmlns:dc="http://purl.org/dc/elements/1.1/" viewBox="0 0 48 48.000001">
<defs>
<linearGradient id="a" y2="-33.29" gradientUnits="userSpaceOnUse" x2="-125.19" gradientTransform="matrix(.49433 0 0 .4778 86.64 13.1)" y1="73.5" x1="-123.97">
<stop stop-color="#00a661" offset="0"/>
<stop stop-color="#37ce97" offset="1"/>
</linearGradient>
</defs>
<g transform="translate(0 -1004.4)">
<g transform="matrix(.91659 0 0 .91659 2 1006.4)">
<path fill-rule="evenodd" fill="url(#a)" d="m2.982 0h42.04c1.652 0 2.982 1.33 2.982 2.982v42.04c0 1.652-1.33 2.982-2.982 2.982h-42.04c-1.652 0-2.982-1.33-2.982-2.982v-42.04c0-1.652 1.33-2.982 2.982-2.982"/>
<g stroke="#dcf4ea" fill="#dcf4ea">
<path d="m-62.07 43.46v-3.44q-2.84-0.4-5.24-2.28-2.36-1.88-3.12-5.04l3.28-1.32q0.48 1.92 1.84 3.32 1.4 1.4 3.24 1.76v-9.6q-0.12 0-0.2-0.08-7.16-2.8-7.16-8 0-2.72 2-4.8 2-2.12 5.36-2.44v-3.44h3.04v3.52q2.8 0.44 4.48 2.04 1.72 1.56 2.28 3.32l-3.28 1.4q-0.28-1-1.2-1.88-0.88-0.92-2.28-1.28v9q3.48 1.44 5.4 3.24 1.96 1.76 1.96 4.72 0 3.36-2.12 5.32t-5.24 2.44v3.52h-3.04zm6.72-11.2q0-1.4-0.92-2.32-0.92-0.96-2.76-1.84v8.28q1.68-0.36 2.68-1.4 1-1.08 1-2.72zm-10.4-13.48q0 2.52 3.68 4.2v-7.88q-1.68 0.28-2.68 1.28-1 0.96-1 2.4z" transform="matrix(.90498 0 0 .90498 79.29 .672)"/>
</g>
</g>
</g>
</svg>
