<svg xmlns:rdf="http://www.w3.org/1999/02/22-rdf-syntax-ns#" xmlns="http://www.w3.org/2000/svg" height="48" width="48" version="1.1" xmlns:cc="http://creativecommons.org/ns#" xmlns:dc="http://purl.org/dc/elements/1.1/" viewBox="0 0 48.000001 48.000001">
<g transform="translate(0 -1004.4)">
<path fill="#4d4d4d" d="m4.4446 1006.4c-1.3529 0-2.4446 0.9-2.4446 2.2v39.594c0 1.2184 1.0889 2.2029 2.4446 2.2029h39.111c1.3529 0 2.4446-0.9845 2.4446-2.2029v-39.594c0-1.2184-1.0889-2.2029-2.4446-2.2029h-39.111m4.1632 5.5h0.66546c0.48947 0 0.88544 0.396 0.88544 0.8855v31.226c0 0.4892-0.39597 0.8852-0.88544 0.8852h-0.66546c-0.48947 0-0.88545-0.396-0.88545-0.8852v-31.226c0-0.4895 0.39598-0.8855 0.88545-0.8855m4.43 0h2.4336c0.48947 0 0.88545 0.396 0.88545 0.8855v31.226c0 0.4892-0.39598 0.8852-0.88545 0.8852h-2.4336c-0.48947 0-0.88544-0.396-0.88544-0.8852v-31.226c0-0.4895 0.39598-0.8855 0.88544-0.8855m5.7581 0h2.4391c0.48947 0 0.88544 0.396 0.88544 0.8855v31.226c0 0.4892-0.39597 0.8852-0.88544 0.8852h-2.4391c-0.48947 0-0.88544-0.396-0.88544-0.8852v-31.226c0-0.4895 0.39598-0.8855 0.88544-0.8855m5.7581 0h0.21999c0.48947 0 0.88544 0.396 0.88544 0.8855v31.226c0 0.4892-0.39598 0.8852-0.88544 0.8852h-0.21999c-0.48947 0-0.88544-0.396-0.88544-0.8852v-31.226c0-0.4895 0.39597-0.8855 0.88544-0.8855m3.5445 0h7.749c0.48947 0 0.88545 0.396 0.88545 0.8855v31.226c0 0.4892-0.39598 0.8852-0.88545 0.8852h-7.749c-0.48947 0-0.88544-0.396-0.88544-0.8852v-31.226c0-0.4895 0.39598-0.8855 0.88544-0.8855m11.082 0h0.21998c0.48947 0 0.88545 0.396 0.88545 0.8855v31.226c0 0.4892-0.39598 0.8852-0.88545 0.8852h-0.21998c-0.48947 0-0.88544-0.396-0.88544-0.8852v-31.226c0-0.4895 0.39597-0.8855 0.88544-0.8855"/>
</g>
</svg>
