<svg xmlns:rdf="http://www.w3.org/1999/02/22-rdf-syntax-ns#" xmlns="http://www.w3.org/2000/svg" height="48" width="48" version="1.1" xmlns:cc="http://creativecommons.org/ns#" xmlns:dc="http://purl.org/dc/elements/1.1/" viewBox="0 0 48 48.000001">
<defs>
<linearGradient id="a" y2="531.15" gradientUnits="userSpaceOnUse" x2="864.14" y1="526.27" x1="859.24">
<stop stop-color="#f0a23a" offset="0"/>
<stop stop-color="#fde46a" offset="1"/>
</linearGradient>
<linearGradient id="c" y2="507.21" gradientUnits="userSpaceOnUse" x2="842.73" y1="525.97" x1="860">
<stop stop-color="#ffee97" offset="0"/>
<stop stop-color="#ffe76b" offset="1"/>
</linearGradient>
<linearGradient id="b" y2="517.32" gradientUnits="userSpaceOnUse" x2="860.02" y1="529.48" x1="858.81">
<stop stop-color="#fed45b" offset="0"/>
<stop stop-color="#ffcc54" offset="1"/>
</linearGradient>
</defs>
<g transform="translate(0 -1004.4)">
<g transform="matrix(1.2516 0 0 1.2478 -1039.1 383.7)">
<rect rx="1.5" height="34.793" width="35.04" y="499.13" x="831.91" fill="url(#a)"/>
<g fill-rule="evenodd">
<path fill="url(#c)" d="m831.8 501.31v30.909s0.292 1.723 2.045 1.723h13c11.65-2.057 18.553-8.41 20.08-19.625v-13.376c0.084-1.866-1.563-1.952-1.563-1.952l-31.397 0.11c-2.337-0.161-2.167 2.21-2.167 2.21"/>
<path opacity=".9" d="m846.07 534.25c6.656-1.385 10.159-5.085 12.416-9.509 5.994-1.741 7.526-6.272 8.402-11.214 0.128 12.622-9.624 18.834-20.819 20.723" fill="url(#b)"/>
</g>
<path opacity=".7" d="m462.5 96.19-21.73-21.726c-8.951-8.95-23.562-8.95-32.59 0l-227.82 227.89-119.34-119.34c-8.95-8.951-23.562-8.951-32.589 0l-21.723 21.73c-8.95 8.951-8.95 23.562 0 32.589l157.29 157.28c4.514 4.514 10.327 6.809 16.218 6.809s11.781-2.295 16.219-6.809l265.84-265.84c9.18-9.103 9.18-23.638 0.23-32.59z" transform="matrix(.04152 .00414 -.00414 .04152 840.45 505.54)" stroke="#cb8034" stroke-width="4.248" fill="#e8923a"/>
</g>
</g>
</svg>
