<svg xmlns:rdf="http://www.w3.org/1999/02/22-rdf-syntax-ns#" xmlns="http://www.w3.org/2000/svg" version="1.1" xmlns:cc="http://creativecommons.org/ns#" xmlns:xlink="http://www.w3.org/1999/xlink" viewBox="0 0 48 48" xmlns:dc="http://purl.org/dc/elements/1.1/">
<defs>
<linearGradient id="d" y2="525.05" gradientUnits="userSpaceOnUse" y1="542.4" x2="403.76" x1="404.33">
<stop stop-color="#289bf7" offset="0"/>
<stop stop-color="#4caaf4" offset="1"/>
</linearGradient>
<linearGradient id="c" y2="527.62" xlink:href="#b" gradientUnits="userSpaceOnUse" x2="400.56" y1="538.78" x1="400.85"/>
<linearGradient id="a" y2="354.29" gradientUnits="userSpaceOnUse" y1="647.77" x2="-704.05" x1="-701.19">
<stop stop-color="#9fd2fa" offset="0"/>
<stop stop-color="#cde8fe" offset="1"/>
</linearGradient>
<linearGradient id="e" y2="-37.783" xlink:href="#b" gradientUnits="userSpaceOnUse" x2="59.15" gradientTransform="matrix(4.1748 0 0 4.1676 -1069.7 447.73)" y1="-13.295" x1="59.12"/>
<linearGradient id="b">
<stop stop-color="#289bf7" offset="0"/>
<stop stop-color="#71b9f1" offset="1"/>
</linearGradient>
</defs>
<g transform="matrix(1.8332 0 0 1.8332 -710.33 -950.96)">
<path style="color:#000000" fill="url(#e)" d="m-884.1 294.78c-4.626 0-8.349 3.718-8.349 8.335v161.41l468.19 1v-121.2c0-4.618-3.724-8.335-8.35-8.335h-272.65c-8.51 0.751-9.607-0.377-13.812-5.981-5.964-7.968-14.969-21.443-20.84-29.21-4.712-6.805-5.477-6.02-13.292-6.02z" transform="matrix(.0558 0 0 .0558 437.31 505.35)"/>
<rect rx="9.63" transform="matrix(.0558 0 0 .0558 437.31 505.35)" height="295.13" width="463.85" stroke="url(#a)" y="356.85" x="-890.28" stroke-width="2.378" fill="url(#a)"/>
<rect stroke-linejoin="round" rx=".537" height="16.469" width="25.884" stroke="url(#d)" stroke-linecap="round" y="525.26" x="387.63" stroke-width="0.3" fill="none"/>
<path fill="url(#c)" d="m400.59 527.66c-0.115 0-0.232 0.044-0.321 0.132l-5.558 5.531c-0.177 0.176-0.178 0.461-0.002 0.638l5.531 5.558c0.176 0.177 0.461 0.178 0.638 0.002l5.558-5.531c0.177-0.176 0.178-0.461 0.002-0.638l-5.529-5.558c-0.088-0.089-0.204-0.134-0.319-0.134m-1.108 3.1c0.091-0.019 0.187-0.019 0.284 0 0.389 0.077 0.644 0.456 0.566 0.845-0.077 0.389-0.457 0.642-0.847 0.565-0.389-0.077-0.642-0.456-0.565-0.845 0.058-0.292 0.287-0.508 0.561-0.565m0.913 1.403c0.095-0.02 0.189-0.016 0.277 0.005l0.99 0.181c0.029 0.005 0.057 0.015 0.084 0.028l0.72 0.348c0.163 0.079 0.232 0.276 0.153 0.439-0.057 0.117-0.174 0.185-0.296 0.185-0.048 0-0.097-0.011-0.143-0.033l-0.68-0.329-0.303-0.056 0.233 1.093c0.004 0.022 0.008 0.044 0.001 0.066l0.42 1.082 0.885 0.742c0.165 0.139 0.187 0.385 0.049 0.551-0.077 0.092-0.188 0.139-0.3 0.139-0.089 0-0.178-0.029-0.251-0.091l-0.962-0.808c-0.05-0.042-0.089-0.096-0.113-0.157l-0.3-0.772c-0.006 0.0001-0.014 0-0.021 0l-0.589 0.516-0.167 1.103c-0.029 0.193-0.195 0.333-0.385 0.333-0.02 0-0.041-0.002-0.061-0.005-0.213-0.033-0.358-0.231-0.326-0.444l0.188-1.244c0.014-0.091 0.06-0.175 0.129-0.235l0.573-0.502c-0.0001-0.004-0.003-0.009-0.004-0.014l-0.223-1.047-0.296 0.232c-0.031 0.024-0.067 0.042-0.105 0.054l-0.843 0.265c-0.033 0.001-0.067 0.016-0.099 0.016-0.14 0-0.268-0.09-0.312-0.23-0.054-0.173 0.041-0.359 0.214-0.413l0.788-0.246 0.788-0.615c0.006-0.005 0.014-0.009 0.021-0.014 0.073-0.058 0.159-0.101 0.256-0.122"/>
</g>
</svg>
