<svg xmlns:rdf="http://www.w3.org/1999/02/22-rdf-syntax-ns#" xmlns="http://www.w3.org/2000/svg" version="1.1" xmlns:cc="http://creativecommons.org/ns#" xmlns:dc="http://purl.org/dc/elements/1.1/" viewBox="0 0 48 48">
<path d="m11.838 41.803c-0.43461-0.16511-0.76386-0.45953-2.9099-2.602-2.806-2.8014-2.9112-2.9494-2.9205-4.109-0.01065-1.3259-0.2585-1.0149 5.0606-6.3499l4.7317-4.7458-4.7323-4.745c-5.2912-5.306-5.0648-5.025-5.0648-6.304 0-1.126 0.11059-1.2796 2.9586-4.1098 2.2624-2.2483 2.5212-2.4776 2.9923-2.6512 0.67048-0.24708 1.4158-0.24726 2.0872-0.00054 0.4851 0.17826 0.79586 0.4689 5.2395 4.9002l4.7239 4.7107 4.6318-4.6357c5.1444-5.1487 5.0759-5.0921 6.2356-5.1496 0.48079-0.024 0.74622 0.0144 1.1583 0.16698 0.49468 0.18312 0.71957 0.38172 3.0112 2.6591 2.8451 2.8274 2.9525 2.9766 2.9563 4.1071 0.0043 1.2812 0.23231 0.9972-5.0635 6.3073l-4.7323 4.745 4.6846 4.7013c5.2568 5.2755 5.1014 5.0836 5.1058 6.3054 0.0046 1.2514-0.0922 1.3899-2.9375 4.2049-2.7513 2.722-2.8507 2.7907-4.0368 2.7907-1.2478 0-0.95458 0.23634-6.207-5.002-2.5983-2.5914-4.7627-4.7116-4.8096-4.7116-0.04698 0-2.2112 2.1202-4.8096 4.7116-4.2656 4.2542-4.7669 4.7257-5.1634 4.8568-0.61523 0.20346-1.5799 0.18126-2.1894-0.0504z" fill-rule="evenodd" stroke-width="0" fill="#da4453"/>
</svg>
