<svg xmlns:rdf="http://www.w3.org/1999/02/22-rdf-syntax-ns#" xmlns="http://www.w3.org/2000/svg" version="1.1" xmlns:cc="http://creativecommons.org/ns#" xmlns:dc="http://purl.org/dc/elements/1.1/" viewBox="0 0 48 48">
<path fill="#7b6" d="m47.135 10.684-4.2116-4.2116c-0.57776-0.57814-1.2802-0.86702-2.1058-0.86702-0.82597 0-1.528 0.28888-2.1062 0.86702l-20.316 20.348-9.1045-9.138c-0.5781-0.578-1.2802-0.867-2.1058-0.867-0.82597 0-1.528 0.28888-2.1062 0.86702l-4.2115 4.211c-0.57812 0.579-0.867 1.281-0.867 2.107 0 0.825 0.28888 1.528 0.86702 2.105l11.21 11.21 4.2116 4.2116c0.57776 0.57814 1.2798 0.86702 2.1058 0.86702 0.82559 0 1.528-0.28926 2.1058-0.86702l4.211-4.211 22.421-22.421c0.578-0.578 0.867-1.28 0.867-2.106 0.000039-0.82559-0.28926-1.528-0.86702-2.1058"/>
</svg>
