<svg xmlns:rdf="http://www.w3.org/1999/02/22-rdf-syntax-ns#" xmlns="http://www.w3.org/2000/svg" version="1.1" xmlns:cc="http://creativecommons.org/ns#" xmlns:xlink="http://www.w3.org/1999/xlink" viewBox="0 0 48 48" xmlns:dc="http://purl.org/dc/elements/1.1/">
<defs>
<linearGradient id="c" y2="28.505" gradientUnits="userSpaceOnUse" x2="39.686" gradientTransform="matrix(.95437 0 0 .95437 .49369 1.8951)" y1="42.958" x1="24.669">
<stop stop-color="#fff" stop-opacity="0" offset="0"/>
<stop stop-color="#fff" stop-opacity=".14384" offset=".57424"/>
<stop stop-color="#fff" stop-opacity="0" offset="1"/>
</linearGradient>
<linearGradient id="b" y2="43.366" gradientUnits="userSpaceOnUse" x2="22.245" gradientTransform="matrix(.95437 0 0 .95437 .49369 1.8951)" y1="2.1102" x1="21.629">
<stop stop-color="#fff" offset="0"/>
<stop stop-color="#fff" stop-opacity="0" offset="1"/>
</linearGradient>
<linearGradient id="e" y2="29.857" gradientUnits="userSpaceOnUse" x2="37.04" gradientTransform="translate(.000386 -.99952)" y1="35.774" x1="33.687">
<stop stop-color="#204a87" offset="0"/>
<stop stop-color="#204a87" stop-opacity="0" offset="1"/>
</linearGradient>
<linearGradient id="d" y2="26.843" gradientUnits="userSpaceOnUse" x2="34.966" gradientTransform="translate(.000386 -.99952)" y1="34.601" x1="31.226">
<stop stop-color="#3465a4" offset="0"/>
<stop stop-color="#3465a4" stop-opacity="0" offset="1"/>
</linearGradient>
<linearGradient id="a" y2="31.444" gradientUnits="userSpaceOnUse" x2="36.277" gradientTransform="matrix(.95437 0 0 .95437 .49369 1.8951)" y1="1.1527" x1="24.664">
<stop stop-color="#729fcf" offset="0"/>
<stop stop-color="#3465a4" offset="1"/>
</linearGradient>
</defs>
<g transform="translate(-.00038823 .55043)">
<path stroke-linejoin="round" d="m24 32.5c-4.895-0.05388-8.5532-4.1267-8.4991-9 0.05412-4.8733 4.1041-9.0539 8.9991-9 2.3639 0.02602 4.439 0.50979 6.1368 2.1476l-4.1368 4.8524h16v-16l-4.4711 3.6095c-3.708-3.6435-7.994-5.5529-13.467-5.6131-11.134-0.1226-20.013 8.9466-20.136 20.032-0.1236 11.084 8.735 19.753 19.869 19.876" stroke="#204a87" fill="url(#a)"/>
<path d="m23.864 43.402c9.3101 0.10247 19.729-7.0911 19.712-19.526l-9.8591-0.07674c-0.18151 5.0725-5.5466 8.8897-9.967 8.7009" stroke="url(#e)" fill="url(#d)"/>
<path opacity=".4" d="m24.25 33.65c-5.4232-0.07929-9.7443-3.8685-9.75-10.15-0.0049-5.3964 4.6722-10.219 10.095-10.14 2.6731 0.03908 5.7129 0.89004 7.7267 3.1669l-3.326 3.8331 12.383 0.02029v-12.464l-3.377 2.876c-3.542-3.9513-7.981-6.1012-13.521-6.1567-10.598-0.106-18.807 8.4017-18.889 18.999 0.2594 11.856 9.393 18.619 18.703 18.822" stroke="url(#b)" stroke-width="1.193" fill="none"/>
<path stroke-linejoin="round" d="m23.719 42.296c7.9526 0 18.799-5.5343 18.899-18.389l-8.0569-0.20629c0.0072 5.2159-4.7465 9.7251-10.31 9.89" stroke="url(#c)" stroke-width="1.193" fill="none"/>
</g>
</svg>
