<svg xmlns:rdf="http://www.w3.org/1999/02/22-rdf-syntax-ns#" style="enable-background:new 0 0 32 32" xmlns="http://www.w3.org/2000/svg" xml:space="preserve" viewBox="0 0 32 32" version="1.1" xmlns:cc="http://creativecommons.org/ns#" xmlns:dc="http://purl.org/dc/elements/1.1/"><path fill="#4c4c4c" d="m4 9.1429h24c1.104 0 2-1.024 2-2.2857s-0.896-2.2857-2-2.2857h-24c-1.104-0.0001-2 1.0239-2 2.2856 0 1.2618 0.896 2.2858 2 2.2858zm24 4.5711h-24c-1.104 0-2 1.024-2 2.286 0 1.2617 0.896 2.2857 2 2.2857h24c1.104 0 2-1.024 2-2.2857s-0.896-2.2857-2-2.2857zm0 9.1429h-24c-1.104 0-2 1.024-2 2.286 0 1.2617 0.896 2.2857 2 2.2857h24c1.104 0 2-1.024 2-2.2857s-0.896-2.2857-2-2.2857z"/></svg>
