<?xml version="1.0" encoding="UTF-8" standalone="no"?>
<svg
   xmlns:dc="http://purl.org/dc/elements/1.1/"
   xmlns:cc="http://creativecommons.org/ns#"
   xmlns:rdf="http://www.w3.org/1999/02/22-rdf-syntax-ns#"
   xmlns:svg="http://www.w3.org/2000/svg"
   xmlns="http://www.w3.org/2000/svg"
   version="1.1"
   id="svg2"
   viewBox="0 0 1800 1800"
   height="1800"
   width="1800">
  <defs
     id="defs4" />
  <metadata
     id="metadata7">
    <rdf:RDF>
      <cc:Work
         rdf:about="">
        <dc:format>image/svg+xml</dc:format>
        <dc:type
           rdf:resource="http://purl.org/dc/dcmitype/StillImage" />
        <dc:title></dc:title>
      </cc:Work>
    </rdf:RDF>
  </metadata>
  <g
     transform="translate(-225.96287,-22.326795)"
     style="display:inline"
     id="layer2">
    <path
       id="rect4148"
       d="m 1409.1385,137.93662 c -22.8615,1.09742 -53.8336,17.90181 -79.5957,31.52288 -42.1804,22.30187 -81.1578,55.65478 -108.8315,94.52287 -19.4161,27.27016 -15.487,68.51929 -38.0873,93.21485 -17.0097,18.5866 -44.6756,29.54119 -70.9659,32.79213 32.7086,-19.58948 47.3703,-20.20947 60.7578,-40.54687 17.3383,-26.33916 12.6208,-59.63364 22.8393,-89.46568 8.9088,-26.00873 17.0921,-36.10503 33.6356,-52.57729 -21.003,-22.35712 -34.3784,-32.5087 -60.4124,-43.14761 -31.0212,-12.67696 -68.8306,-16.58732 -102.2946,-14.80468 -53.6614,2.85857 -102.59339,20.96955 -153.17414,39.11635 -67.65252,24.27162 -130.48311,60.3168 -195.57032,90.80664 -19.4776,9.1242 -36.85055,24.12927 -58.33984,27.57031 -35.89139,-11.24822 -54.70368,-23.78086 -87.01172,-35.91015 -28.90916,-10.85325 -47.00046,-42.23799 -73.35351,-59.44141 -14.26659,-9.31331 -26.58328,-18.94667 -44.90235,-20.54883 -9.88059,-0.86414 -16.946,0.20963 -18.27734,1.08594 -2.26091,1.48818 9.20122,1.62186 7.54297,3.85937 -0.82699,1.11588 -27.02842,1.9952 -27.72657,3.25586 -0.75561,1.36442 24.00263,3.12084 23.38086,4.6211 -0.64114,1.547 -19.62994,3.38258 -17.58593,5.29297 2.143,2.0029 25.26159,4.07018 21.72461,5.18554 -4.22365,1.33191 -29.96566,-0.78688 -28.59766,1.73242 1.04872,1.93133 25.16024,3.25993 30.96094,6.17774 3.67024,1.84616 -28.9292,2.51263 -28.59766,4.55664 0.58824,3.62658 29.02222,6.21178 30.30273,10.12891 0.65369,1.99967 -28.53968,-3.33873 -28.47851,-0.50196 0.0516,2.3933 19.14215,5.78859 18.92578,7.46289 -0.49158,3.80395 -37.18244,1.06538 -37.2807,2.73159 -0.0793,1.34441 16.48715,5.96044 28.68472,8.08342 12.34812,2.14919 20.00702,3.56985 17.84352,4.20883 -4.63643,1.36934 -13.45514,3.03038 -20.43142,2.5241 -14.16221,-1.02778 -37.90293,-2.02631 -37.87863,0.0645 0.0319,2.74142 44.80765,8.38612 44.48688,9.42801 -1.67917,5.45406 -55.48303,2.68399 -49.69508,5.67652 7.17044,3.70733 73.71848,10.13067 67.51484,11.18927 -5.93825,1.01331 -53.48914,-5.05578 -53.17033,-3.37666 0.61063,3.21614 36.77083,9.51268 37.61955,13.84151 0.52468,2.67612 -41.79899,-0.9953 -42.00606,0.45711 -0.45346,3.18077 60.92478,17.2262 61.44356,19.28703 0.66877,2.65667 -43.44624,-8.26688 -42.70563,-5.62891 1.03556,3.68857 43.03082,16.46515 44.19196,20.10938 0.72879,2.28731 -27.63208,-1.3908 -27.95062,0.78125 -0.28674,1.95522 44.6339,9.74319 47.27874,12.63476 1.84899,2.02148 -30.27476,0.89444 -32.69922,2.18945 -3.60835,1.92737 28.31133,7.05216 32.4668,9.30469 2.9823,1.6166 -21.93123,0.36884 -21.33789,1.83985 0.77883,1.93088 14.64386,4.34723 15.51953,6.18554 0.66346,1.39281 -42.74899,-0.28846 -42.62304,1.03321 0.1625,1.70533 44.03813,9.80221 47.9414,11.70898 3.77119,1.84224 -35.71426,2.70953 -36.60156,3.68164 -1.81442,1.98783 30.509,3.2828 32.82031,6.31445 1.07081,1.40456 -21.62156,2.66963 -21.37835,4.3605 0.21391,1.48722 26.13769,1.68039 26.89398,2.6063 1.55786,1.90724 -17.77043,6.4057 -16.97892,7.60016 0.72436,1.09313 25.01591,2.00946 26.68009,3.97797 1.45879,1.72556 -37.43428,6.2304 -43.65039,8.25586 5.96058,1.24373 49.9567,-0.71729 50.91406,0.45703 1.30088,1.5957 -18.74169,3.84346 -17.45508,5.48632 1.13633,1.45097 23.60448,2.2905 24.72266,3.78711 1.6103,2.15531 -14.79624,3.479 -13.24024,5.75 1.08779,1.58765 20.15397,4.08966 21.20704,5.74415 1.09861,1.72603 -5.17333,4.97276 -4.11998,6.78096 0.83758,1.43781 8.30866,1.15369 9.81333,2.9163 1.32027,1.54661 -2.74201,6.30705 3.05861,5.27835 22.19666,-22.79676 40.48776,-41.9985 63.61718,-64.54202 13.1019,-12.77002 27.78827,-23.7086 45.36969,-38.1822 -14.68192,17.00167 -28.1631,35.27881 -42.27842,50.78884 -27.33789,30.03911 -51.90857,58.61092 -69.27291,94.75273 -16.67559,34.70826 -13.36898,76.25951 -26.64649,112.4043 -6.3979,17.41672 -16.32983,33.33879 -25.27344,49.5957 -15.91885,28.9359 -43.62923,52.94628 -50.47851,85.25391 -2.49808,11.78327 4.48606,23.8467 4.20898,35.88867 -0.78552,34.1393 -16.73703,66.94373 -16.60156,101.0918 0.18782,47.34468 -1.28258,68.05461 18.41462,128.54018 34.5711,-67.06147 81.79151,-95.06094 81.09319,-156.37612 -34.73058,-7.57484 -60.8289,-39.70836 -44.41351,-88.77958 -5.70968,-2.87607 -9.93259,-6.05954 -18.15289,-9.81417 19.18545,-5.7659 37.70465,2.89405 64.14336,7.67226 -12.54344,-21.3795 -21.54471,-28.91769 -28.79766,-45.70937 -5.50497,-12.74485 -1.45345,-17.81991 -8.14063,-40.8457 11.43424,30.89693 38.82979,53.32442 51.06306,82.46289 6.96715,16.59507 14.34016,35.34628 14.86914,53.33677 0.826,28.09197 -9.67198,55.09639 -19.1303,81.56111 -18.2081,50.947 -56.51997,94.00641 -76.54213,144.26811 -15.93564,40.0033 -32.07881,80.9588 -37.17383,123.7168 -3.43253,28.8062 -2.76819,58.8837 4.75781,86.9004 4.82848,17.9748 17.57505,32.8428 25.29688,49.7774 12.75144,27.9649 18.09019,58.8335 37.19139,82.9121 10.23482,12.9018 17.32423,23.5497 33.78753,23.9601 23.71615,0.5912 44.75224,-27.2444 59.60039,-37.6101 -9.09728,-14.5135 -13.70199,-21.3032 -23.4133,-34.8286 -36.50338,-50.8391 -100.52125,-88.1609 -113.83984,-149.3144 -6.59359,-30.275 6.41053,-67.7268 20.51367,-90.6621 -3.45967,13.2663 -9.6569,27.931 -12.60515,42.1523 -3.79639,18.3125 -3.61585,35.8896 -0.11265,48.7988 13.57988,5.5176 29.22483,8.5885 39.794,18.6156 8.11352,7.6974 19.66171,41.2516 31.75026,63.277 6.42883,11.7134 13.96717,19.4111 25.52315,33.0606 -0.3664,-10.4438 -7.75391,-21.87 -12.96395,-33.2215 -10.10805,-22.0231 -34.44855,-53.3131 -23.03549,-64.3257 9.21988,-8.8963 40.46415,-9.8037 63.07366,-19.8317 16.40779,-7.2774 34.93945,18.5985 51.91797,13.0957 18.65296,-6.0455 24.99223,-36.2755 37.75586,-45.1094 14.98051,11.4789 12.23003,31.9791 6.22265,46.3711 -5.76157,13.8031 -24.49129,17.2607 -35.8164,27.0313 -8.94068,7.7134 -16.76781,16.6308 -25.25391,24.8417 -8.1945,7.9287 -19.06178,13.7187 -24.77929,23.584 -10.57934,18.2542 -23.22326,42.0152 -15.07032,61.4746 6.33867,15.1291 13.0638,22.6886 25.76135,32.3915 11.82557,9.0365 29.11872,14.6056 42.49102,21.57 21.75156,11.3284 45.66142,24.2124 69.44099,28.7514 44.81464,8.5542 104.12878,3.0251 136.85742,-1.9746 -12.72823,15.7085 -91.62442,24.1408 -138.70899,18.7793 -40.10174,-4.5664 -76.62315,-48.4447 -116.62304,-43.0586 -20.80297,2.8012 -35.59543,21.3487 -51.64843,36.0254 -2.31894,23.3634 14.55792,47.0161 32.45507,61.959 18.41617,15.3763 44.77127,23.3041 68.69336,21.4824 10.44934,-0.7957 25.63975,-4.9259 33.24024,-7.3897 14.5383,4.9996 35.70262,13.9315 57.77148,14.7647 37.47231,1.4147 75.66235,-10.671 108.9961,-27.8476 44.3981,-22.878 72.97961,-58.596 118.91015,-114.6407 45.93054,-56.0448 112.05134,-133.2744 167.67774,-204.3789 -26.3158,44.6604 -86.0819,118.4537 -128.16315,174.7988 -26.75499,35.8238 -48.9447,63.014 -53.13989,69.1918 21.44411,-2.4053 41.64598,-7.36 68.23731,-13.6334 39.05293,-9.2134 89.56223,-15.5571 119.50053,-26.5613 51.4632,-18.916 86.5371,-47.2499 129.5222,-75.6201 -18.997,32.7322 -110.7629,92.429 -164.1713,107.058 -55.6733,15.2494 -72.8882,7.6224 -127.35292,19.3087 -6.83695,30.2716 -9.16908,34.6747 -8.64611,60.781 0.41883,20.9075 2.76543,35.4189 15.7039,79.2008 64.57753,109.7689 155.37093,167.1729 192.54413,171.2714 23.4579,2.5863 187.6978,-40.739 308.4254,-129.7258 88.3161,-65.0967 171.6165,-137.6484 246.0867,-218.2183 85.2942,-92.2804 180.6563,-188.4151 215.9121,-309.0293 27.273,-93.3041 8.8468,-196.42701 -11.9765,-291.37891 -8.7061,-39.699 -21.0062,-81.03445 -46.4336,-112.74023 -29.5588,-36.8573 -80.4087,-50.31755 -116.207,-81.15039 -79.3008,-68.3013 -138.2242,-153.34287 -206.6499,-202.22322 -8.3289,26.20119 -8.8278,31.25893 -13.7972,50.44365 -17.008,65.94482 -48.4482,135.94066 -79.8791,209.51394 20.4707,-123.86213 63.7908,-194.02169 72.0176,-294.86328 2.845,-34.87276 4.0922,-71.84168 -8.0489,-104.65625 -15.2129,-41.11671 -30.6571,-89.34095 -71.9829,-103.97628 -6.3392,-2.24497 -18.5665,-5.80672 -25.1538,-5.49051 z m -16.9414,140.56054 c 2.7063,-0.027 5.4464,0.30473 8.2129,1.04297 38.0456,10.15256 43.8281,70.04162 44.5371,109.41211 0.8644,48.0012 -17.6346,99.32569 -49.4629,135.26758 -6.2947,7.10823 -18.8366,-3.23674 -25.373,12.94531 -4.6223,11.44322 0.7707,10.11205 8.3222,36.07813 -18.3326,-29.31833 -36.0075,-72.10867 -65.6145,-95.60479 -20.9877,-16.65581 -52.4942,-15.07289 -74.3444,-30.15889 20.7109,0.38508 51.5374,2.30302 68.041,-13.93359 23.764,-23.37959 3.8632,-69.44924 21.6621,-97.63672 14.7777,-23.40305 37.8583,-57.15105 64.0195,-57.41211 z M 837.41684,602.28821 c 0,0 -19.19333,46.5025 -26.26433,77.27533 -7.68334,33.43775 -20.20269,63.13516 -20.20269,63.13516 0,0 3.86634,-28.8924 10.1019,-62.63008 6.06099,-32.7931 36.36512,-77.78041 36.36512,-77.78041 z m 88.53227,151.25192 c 6.50012,-0.0439 13.4596,0.65763 23.08789,2.79492 -0.80006,37.14468 -30.5139,87.29368 -64.40374,92.34459 -8.9148,1.32866 -30.63167,-0.95946 -44.70173,-6.85352 -9.78231,0.13547 -15.8643,2.30235 -23.41601,7.86636 -13.41966,9.88746 -17.5433,37.72803 -24.50196,53.73242 -3.60932,-31.72539 15.09731,-82.86181 15.09766,-94.56055 8.9e-4,-29.56778 10.55797,-51.51742 59.09375,-51.51758 33.36835,1.1e-4 45.44387,-3.70995 59.74414,-3.80664 z M 784.3831,926.5458 c 6.6109,20.7003 0.58375,55.8866 10.60703,81.3185 18.23727,46.2731 58.89437,76.2415 104.55036,114.1467 -43.12147,-22.767 -94.18996,-57.8955 -115.15782,-105.5604 -12.06711,-27.4314 -4.47162,-68.2428 4.3e-4,-89.9048 z"
       style="color:#000000;display:inline;overflow:visible;visibility:visible;opacity:1;fill:#000000;fill-opacity:1;fill-rule:nonzero;stroke:none;stroke-width:2;stroke-linecap:round;stroke-linejoin:miter;stroke-miterlimit:4;stroke-dasharray:none;stroke-dashoffset:0;stroke-opacity:0.88922155;marker:none;enable-background:accumulate" />
  </g>
</svg>
